#!OML:ASF F:\VICON\USERDATA\INSTALL\rory3\rory3.ASF
:FULLY-SPECIFIED
:DEGREES
2157
root -0.464706 18.1659 -1.30876 -2.96478 -9.82384 -0.0209683
lowerback 13.5597 0.0361792 -0.538617
upperback 1.35418 -0.0176332 0.327418
thorax -6.17653 0.00628306 0.65347
lowerneck -11.8688 -4.42219 -7.61058
upperneck 3.54135 -5.34896 8.33145
head 3.41066 -2.39567 3.42601
rclavicle -7.63457e-015 1.2424e-015
rhumerus -13.2808 19.0445 -76.7965
rradius 108.488
rwrist -6.47181
rhand -35.5496 8.14844
rfingers 7.12502
rthumb -8.67516 -21.6533
lclavicle -7.63457e-015 1.2424e-015
lhumerus -54.531 -8.32284 93.1488
lradius 103.314
lwrist 30.3287
lhand -31.2847 15.8613
lfingers 7.12502
lthumb -4.55805 45.7923
rfemur -10.327 16.1963 22.037
rtibia 43.047
rfoot -21.7625 -7.95908
rtoes -11.9776
lfemur -23.5723 14.1911 -9.31716
ltibia 80.0369
lfoot -5.06165 -0.683217
ltoes -13.7186
2158
root -0.447738 18.2276 -1.29449 -2.86585 -9.95042 0.0145299
lowerback 13.3903 0.0461621 -0.314809
upperback 1.3131 0.0223745 0.216836
thorax -6.12643 0.0188417 0.402678
lowerneck -12.1525 -4.53345 -7.5582
upperneck 3.7974 -5.52641 8.6416
head 3.55723 -2.46 3.49426
rclavicle 2.79665e-014 1.2424e-015
rhumerus -13.0941 18.4332 -76.9287
rradius 108.777
rwrist -6.45734
rhand -35.8428 8.45862
rfingers 7.12502
rthumb -8.95816 -21.3312
lclavicle 2.79665e-014 1.2424e-015
lhumerus -54.2988 -8.16942 93.3998
lradius 102.372
lwrist 30.9701
lhand -31.6277 16.6506
lfingers 7.12502
lthumb -4.88924 46.5742
rfemur -10.178 16.3325 21.8673
rtibia 42.5034
rfoot -20.3804 -7.79991
rtoes -13.0377
lfemur -23.4174 13.9598 -9.81297
ltibia 79.2056
lfoot -4.95775 -0.210097
ltoes -13.2468
2159
root -0.430533 18.2998 -1.28552 -2.73974 -9.9463 0.0317883
lowerback 13.2601 0.0300315 -0.100185
upperback 1.25406 0.0249662 0.0920966
thorax -6.11648 0.013297 0.149375
lowerneck -12.4661 -4.67076 -7.49491
upperneck 4.04492 -5.74673 9.01999
head 3.7125 -2.54009 3.57783
rclavicle -7.14693e-015 9.19379e-016
rhumerus -13.0658 17.7436 -77.1716
rradius 109.087
rwrist -6.77
rhand -35.8681 8.70481
rfingers 7.12502
rthumb -8.9825 -21.084
lclavicle -7.14693e-015 9.19379e-016
lhumerus -53.9662 -8.08454 93.6533
lradius 101.52
lwrist 31.4493
lhand -31.9314 17.1586
lfingers 7.12502
lthumb -5.18248 47.0752
rfemur -10.1087 16.4406 21.7028
rtibia 41.9985
rfoot -19.4314 -7.70294
rtoes -12.4394
lfemur -23.2902 13.5656 -10.3507
ltibia 78.1187
lfoot -4.91384 0.263938
ltoes -13.0647
2160
root -0.413579 18.3824 -1.2789 -2.69991 -9.79574 0.258814
lowerback 13.2776 -0.00955751 -0.178138
upperback 1.13739 -0.0461599 -0.0221993
thorax -6.24971 -0.0205608 0.086056
lowerneck -12.611 -4.84576 -7.50376
upperneck 4.21629 -6.00391 9.27324
head 3.819 -2.64933 3.63374
rclavicle -5.65604e-015 2.11209e-015
rhumerus -13.3342 17.1558 -77.4412
rradius 109.506
rwrist -7.23112
rhand -35.8135 8.72214
rfingers 7.12502
rthumb -8.9298 -21.0689
lclavicle -5.65604e-015 2.11209e-015
lhumerus -53.7913 -7.91248 94.0142
lradius 100.898
lwrist 31.7938
lhand -32.0773 17.0602
lfingers 7.12502
lthumb -5.32338 46.9734
rfemur -10.0227 16.4891 21.3152
rtibia 41.5468
rfoot -18.2618 -7.52988
rtoes -13.3301
lfemur -23.0575 12.9347 -11.1741
ltibia 76.7491
lfoot -5.00049 0.836632
ltoes -12.6245
2161
root -0.394522 18.4757 -1.27114 -2.80427 -9.59035 0.607054
lowerback 13.4321 -0.0669914 -0.435646
upperback 1.04546 -0.168112 -0.124979
thorax -6.43269 -0.074047 0.14612
lowerneck -12.5777 -5.00412 -7.56768
upperneck 4.22102 -6.22509 9.45922
head 3.8429 -2.75116 3.68398
rclavicle -1.63656e-014 -5.7896e-015
rhumerus -13.7914 16.717 -77.6931
rradius 109.952
rwrist -7.69235
rhand -35.9884 9.20119
rfingers 7.12502
rthumb -9.0986 -20.5826
lclavicle -1.63656e-014 -5.7896e-015
lhumerus -53.6605 -7.58831 94.3745
lradius 100.475
lwrist 31.8714
lhand -31.9989 16.8473
lfingers 7.12502
lthumb -5.24764 46.7623
rfemur -9.80205 16.5169 20.8171
rtibia 41.1194
rfoot -17.7084 -7.33658
rtoes -13.957
lfemur -22.566 12.1656 -12.1446
ltibia 75.0966
lfoot -5.07812 1.4812
ltoes -12.4478
2162
root -0.371483 18.5681 -1.26286 -2.77235 -9.42126 0.957437
lowerback 13.409 -0.112532 -0.696012
upperback 0.961145 -0.275517 -0.241549
thorax -6.50826 -0.120329 0.190404
lowerneck -12.6917 -5.14115 -7.57565
upperneck 4.26114 -6.41894 9.63238
head 3.89728 -2.8348 3.72057
rclavicle 5.7368e-015 -3.32964e-015
rhumerus -14.2021 16.3281 -77.9343
rradius 110.331
rwrist -8.36831
rhand -36.0728 9.53092
rfingers 7.12502
rthumb -9.18003 -20.2493
lclavicle 5.7368e-015 -3.32964e-015
lhumerus -53.3702 -7.25489 94.6848
lradius 100.136
lwrist 31.7261
lhand -31.8928 16.486
lfingers 7.12502
lthumb -5.14519 46.4035
rfemur -9.738 16.5045 20.2221
rtibia 40.6817
rfoot -16.4197 -7.07185
rtoes -15.2683
lfemur -22.1205 11.4151 -13.1538
ltibia 73.2655
lfoot -5.34306 2.04842
ltoes -12.505
2163
root -0.347707 18.6641 -1.24801 -2.51976 -9.37431 1.06129
lowerback 13.1584 -0.139584 -0.752946
upperback 0.829989 -0.32033 -0.277681
thorax -6.50726 -0.140664 0.192082
lowerneck -12.9267 -5.27223 -7.59958
upperneck 4.43812 -6.60421 9.80191
head 4.01284 -2.90934 3.75614
rclavicle -3.42515e-014 5.19325e-015
rhumerus -14.658 15.926 -78.2524
rradius 110.759
rwrist -9.11613
rhand -35.9538 9.20811
rfingers 7.12502
rthumb -9.06522 -20.5771
lclavicle -3.42515e-014 5.19325e-015
lhumerus -53.0397 -7.02738 95.0419
lradius 99.9395
lwrist 31.5154
lhand -31.9683 15.9523
lfingers 7.12502
lthumb -5.21813 45.8681
rfemur -9.85539 16.6155 19.8225
rtibia 40.1383
rfoot -14.7439 -6.48151
rtoes -15.3806
lfemur -21.7976 10.796 -13.8962
ltibia 71.3039
lfoot -5.85028 2.48884
ltoes -12.4552
2164
root -0.32237 18.7667 -1.23018 -2.13604 -9.18526 0.939649
lowerback 12.8123 -0.222512 -0.575907
upperback 0.66408 -0.399331 -0.243098
thorax -6.49013 -0.18347 0.141794
lowerneck -13.0149 -5.39118 -7.62231
upperneck 4.48859 -6.76392 9.86059
head 4.05964 -2.98222 3.76217
rclavicle 5.57839e-015 -3.8763e-015
rhumerus -15.2848 15.3757 -78.6981
rradius 111.294
rwrist -9.65688
rhand -35.8139 8.53209
rfingers 7.12502
rthumb -8.93026 -21.2589
lclavicle 5.57839e-015 -3.8763e-015
lhumerus -52.7249 -6.94041 95.465
lradius 99.8706
lwrist 31.123
lhand -32.1173 15.6297
lfingers 7.12502
lthumb -5.36194 45.5419
rfemur -10.0037 16.5866 19.6153
rtibia 39.5083
rfoot -13.5207 -5.93468
rtoes -15.2838
lfemur -21.5729 10.0144 -14.4192
ltibia 69.2159
lfoot -6.34412 2.94619
ltoes -12.4706
2165
root -0.295512 18.871 -1.1968 -1.75613 -9.28834 0.651545
lowerback 12.297 -0.230919 -0.218092
upperback 0.523343 -0.350773 -0.154446
thorax -6.35246 -0.168986 0.022291
lowerneck -12.9183 -5.50786 -7.81841
upperneck 4.40805 -6.90084 9.995
head 4.04384 -3.05012 3.82581
rclavicle -3.97072e-014 -8.74653e-015
rhumerus -16.0883 15.1586 -78.8978
rradius 111.733
rwrist -10.3649
rhand -35.3895 7.86051
rfingers 7.12502
rthumb -8.52071 -21.9476
lclavicle -3.97072e-014 -8.74653e-015
lhumerus -52.4598 -6.79962 95.9035
lradius 99.9238
lwrist 30.6059
lhand -32.0955 15.7299
lfingers 7.12502
lthumb -5.34092 45.6426
rfemur -10.0498 16.7418 19.5828
rtibia 38.7698
rfoot -12.1299 -5.50738
rtoes -15.6986
lfemur -21.1051 9.45691 -14.6881
ltibia 67.0078
lfoot -6.93262 3.44157
ltoes -13.7401
2166
root -0.265896 18.9603 -1.16703 -1.32672 -9.36615 0.274069
lowerback 11.7538 -0.259956 0.208142
upperback 0.357817 -0.322222 -0.031619
thorax -6.22457 -0.165647 -0.096088
lowerneck -12.924 -5.6249 -7.91433
upperneck 4.49689 -7.04807 9.99188
head 4.08805 -3.12309 3.8265
rclavicle 7.45443e-015 2.68359e-015
rhumerus -16.9027 15.0361 -79.0943
rradius 112.136
rwrist -10.9861
rhand -34.9756 7.33442
rfingers 7.12502
rthumb -8.12124 -22.4895
lclavicle 7.45443e-015 2.68359e-015
lhumerus -52.1808 -6.62913 96.2888
lradius 100.065
lwrist 30.0384
lhand -31.9965 15.5589
lfingers 7.12502
lthumb -5.24535 45.474
rfemur -10.1796 16.7923 19.5947
rtibia 38.0421
rfoot -10.5272 -5.07155
rtoes -16.3098
lfemur -20.6827 8.88281 -14.8472
ltibia 64.7988
lfoot -7.19615 3.8854
ltoes -15.0439
2167
root -0.234129 19.0524 -1.13889 -0.875316 -9.5126 -0.165844
lowerback 11.2062 -0.289031 0.680439
upperback 0.204136 -0.291086 0.120937
thorax -6.0808 -0.161868 -0.209513
lowerneck -12.9237 -5.67451 -8.01171
upperneck 4.53808 -7.10206 9.99834
head 4.109 -3.15058 3.83909
rclavicle -2.99233e-014 7.20594e-015
rhumerus -17.7524 15.0872 -79.3052
rradius 112.28
rwrist -10.8923
rhand -35.3138 7.87907
rfingers 7.12502
rthumb -8.44764 -21.932
lclavicle -2.99233e-014 7.20594e-015
lhumerus -51.8151 -6.43315 96.6447
lradius 100.259
lwrist 29.467
lhand -31.9314 14.9184
lfingers 7.12502
lthumb -5.18246 44.835
rfemur -10.3506 16.9262 19.6285
rtibia 37.347
rfoot -8.90817 -4.61096
rtoes -16.2815
lfemur -20.2398 8.33287 -14.941
ltibia 62.49
lfoot -7.20858 4.25063
ltoes -13.8791
